
<svg xmlns="http://www.w3.org/2000/svg" width="1200" height="600" viewBox="0 0 1200 600">
  <rect x="50" y="50" width="1100" height="500" stroke="purple" fill="none" stroke-width="5" />
  <!-- Detailed keyboard area -->
  <rect x="100" y="350" width="1000" height="150" stroke="purple" fill="none" stroke-width="3" />
  <!-- Rows of keys -->
  <g stroke="purple" fill="none" stroke-width="2">
    <rect x="120" y="370" width="80" height="40" />
    <rect x="220" y="370" width="80" height="40" />
    <rect x="320" y="370" width="80" height="40" />
    <rect x="420" y="370" width="80" height="40" />
    <rect x="520" y="370" width="80" height="40" />
    <rect x="620" y="370" width="80" height="40" />
    <rect x="720" y="370" width="80" height="40" />
    <rect x="820" y="370" width="80" height="40" />
    <rect x="920" y="370" width="80" height="40" />
    <rect x="1020" y="370" width="80" height="40" />
  </g>
  <g stroke="purple" fill="none" stroke-width="2">
    <rect x="120" y="420" width="90" height="40" />
    <rect x="230" y="420" width="90" height="40" />
    <rect x="340" y="420" width="90" height="40" />
    <rect x="450" y="420" width="90" height="40" />
    <rect x="560" y="420" width="90" height="40" />
    <rect x="670" y="420" width="90" height="40" />
    <rect x="780" y="420" width="90" height="40" />
    <rect x="890" y="420" width="90" height="40" />
  </g>
  <g stroke="purple" fill="none" stroke-width="2">
    <rect x="150" y="470" width="100" height="40" />
    <rect x="270" y="470" width="100" height="40" />
    <rect x="390" y="470" width="100" height="40" />
    <rect x="510" y="470" width="100" height="40" />
    <rect x="630" y="470" width="100" height="40" />
    <rect x="750" y="470" width="100" height="40" />
    <rect x="870" y="470" width="100" height="40" />
  </g>
  <!-- Power light -->
  <circle cx="1100" cy="100" r="10" stroke="purple" fill="none" stroke-width="5" />
</svg>
